<?xml version="1.0" encoding="UTF-8" standalone="no"?>
<svg
   width="30"
   height="30"
   viewBox="0 0 30 30"
   fill="none"
   version="1.1"
   id="svg3"
   sodipodi:docname="logo.svg"
   inkscape:version="1.3 (0e150ed6c4, 2023-07-21)"
   xmlns:inkscape="http://www.inkscape.org/namespaces/inkscape"
   xmlns:sodipodi="http://sodipodi.sourceforge.net/DTD/sodipodi-0.dtd"
   xmlns:xlink="http://www.w3.org/1999/xlink"
   xmlns="http://www.w3.org/2000/svg"
   xmlns:svg="http://www.w3.org/2000/svg">
  <sodipodi:namedview
     id="namedview3"
     pagecolor="#ffffff"
     bordercolor="#000000"
     borderopacity="0.25"
     inkscape:showpageshadow="2"
     inkscape:pageopacity="0.0"
     inkscape:pagecheckerboard="0"
     inkscape:deskcolor="#d1d1d1"
     inkscape:zoom="26.233333"
     inkscape:cx="15"
     inkscape:cy="15"
     inkscape:window-width="1920"
     inkscape:window-height="1001"
     inkscape:window-x="-9"
     inkscape:window-y="-9"
     inkscape:window-maximized="1"
     inkscape:current-layer="svg3" />
  <path
     fill-rule="evenodd"
     clip-rule="evenodd"
     d="M 27.8333,15 C 27.8333,15 22.0877,27.8333 15,27.8333 7.91234,27.8333 2.16666,15 2.16666,15 2.16666,15 7.91234,2.16666 15,2.16666 22.0877,2.16666 27.8333,15 27.8333,15 Z M 30,15 C 30,23.2843 23.2843,30 15,30 6.71573,30 0,23.2843 0,15 0,6.71573 6.71573,0 15,0 23.2843,0 30,6.71573 30,15 Z m -14.8358,-2.1604 0.19,-2.4973 0.1643,-2.16046 C 14.7802,8.12567 14.0418,8.19007 13.3314,8.36882 12.7443,8.51654 12.1763,8.74235 11.6432,9.04275 10.4649,9.70664 9.51004,10.705 8.89922,11.9116 8.2884,13.1182 8.04909,14.4788 8.21156,15.8214 c 0.16247,1.3426 0.71942,2.6069 1.60041,3.633 0.88103,1.0261 2.04653,1.7678 3.34903,2.1315 1.3026,0.3637 2.6838,0.333 3.9689,-0.0883 1.2851,-0.4213 2.4164,-1.2142 3.2509,-2.2784 0.3776,-0.4816 0.6867,-1.0089 0.9215,-1.5669 0.2841,-0.6749 0.4594,-1.3947 0.5156,-2.1327 l 10e-5,-0.001 -2.1604,-0.1643 -2.4973,-0.19 L 14.9999,15 Z m 3.7977,4.6347 -4.1264,-0.3139 -2.1604,-0.1644 0.1644,-2.1604 0.3139,-4.1264 c -0.1522,0.0655 -0.3013,0.1393 -0.4466,0.2212 -0.8049,0.4535 -1.4572,1.1355 -1.8745,1.9598 -0.4173,0.8243 -0.5808,1.7538 -0.4698,2.6709 0.111,0.9172 0.4915,1.7809 1.0933,2.4818 0.6019,0.701 1.3981,1.2077 2.2879,1.4562 0.8898,0.2484 1.8334,0.2274 2.7113,-0.0604 0.8779,-0.2877 1.6507,-0.8294 2.2208,-1.5564 0.1029,-0.1313 0.1984,-0.2675 0.2861,-0.408 z"
     fill="url(#paint0_linear_883_4378)"
     id="path1"
     sodipodi:nodetypes="cscscssssscccccssccsccccccccccccccscccccc" />
  <defs
     id="defs3">
    <linearGradient
       id="linearGradient94"
       x1="15"
       y1="0"
       x2="15"
       y2="30"
       gradientUnits="userSpaceOnUse">
      <stop
         stop-color="#DD7EFF"
         id="stop92" />
      <stop
         offset="0.35350347"
         stop-color="#685DFF"
         id="stop93" />
      <stop
         offset="1"
         stop-color="#2152FF"
         id="stop94" />
    </linearGradient>
    <linearGradient
       id="paint0_linear_883_4378"
       x1="15"
       y1="0"
       x2="15"
       y2="30"
       gradientUnits="userSpaceOnUse">
      <stop
         stop-color="#DD7EFF"
         id="stop1" />
      <stop
         offset="0.461458"
         stop-color="#685DFF"
         id="stop2" />
      <stop
         offset="1"
         stop-color="#2152FF"
         id="stop3" />
    </linearGradient>
    <linearGradient
       inkscape:collect="always"
       xlink:href="#linearGradient94"
       id="linearGradient92"
       gradientUnits="userSpaceOnUse"
       x1="15"
       y1="0"
       x2="15"
       y2="30"
       gradientTransform="matrix(1.4187417,0,0,1.4187417,-11.520771,-0.42815027)" />
  </defs>
  <path
     d="m 21.501727,11.313233 c -10e-7,1.037787 -1.163675,2.201495 -2.201462,2.201495 -1.037787,0 -2.201461,-1.163708 -2.201462,-2.201495 -1e-6,-1.037789 1.163673,-2.2015054 2.201462,-2.2015054 1.037789,0 2.201463,1.1637164 2.201462,2.2015054 z"
     style="clip-rule:evenodd;fill:url(#linearGradient92);fill-rule:evenodd;stroke-width:1.41872"
     id="path1-2"
     sodipodi:nodetypes="aaaaa" />
</svg>
