<?xml version="1.0" encoding="UTF-8" standalone="no"?>
<svg
   version="1.0"
   width="100"
   height="100"
   viewBox="0 0 3464.000000 3464.000000"
   preserveAspectRatio="xMidYMid meet"
   id="svg4"
   sodipodi:docname="temp.svg"
   inkscape:version="1.3 (0e150ed6c4, 2023-07-21)"
   xmlns:inkscape="http://www.inkscape.org/namespaces/inkscape"
   xmlns:sodipodi="http://sodipodi.sourceforge.net/DTD/sodipodi-0.dtd"
   xmlns="http://www.w3.org/2000/svg"
   xmlns:svg="http://www.w3.org/2000/svg">
  <defs
     id="defs4" />
  <sodipodi:namedview
     id="namedview4"
     pagecolor="#ffffff"
     bordercolor="#000000"
     borderopacity="0.25"
     inkscape:showpageshadow="2"
     inkscape:pageopacity="0.0"
     inkscape:pagecheckerboard="0"
     inkscape:deskcolor="#d1d1d1"
     inkscape:zoom="7.87"
     inkscape:cx="50"
     inkscape:cy="50"
     inkscape:window-width="1920"
     inkscape:window-height="1001"
     inkscape:window-x="-9"
     inkscape:window-y="-9"
     inkscape:window-maximized="1"
     inkscape:current-layer="g4" />
  <g
     transform="translate(0.000000,3464.000000) scale(0.100000,-0.100000)"
     fill="#877EFF"
     stroke="none"
     id="g4">
    <ellipse
       style="fill:#5afce8;fill-opacity:1;fill-rule:evenodd;stroke:#000000;stroke-width:0;stroke-dasharray:none;paint-order:markers stroke fill;image-rendering:auto"
       id="path7"
       cx="17540.076"
       cy="-12896.466"
       transform="scale(1,-1)"
       rx="12698.399"
       ry="11355.935" />
    <path
       d="M31115 31661 c-11 -5 -46 -10 -77 -10 -31 -1 -124 -15 -205 -31 -81 -17 -208 -42 -280 -56 -73 -13 -144 -29 -157 -33 -13 -5 -81 -21 -152 -36 -71 -14 -149 -32 -174 -40 -25 -8 -142 -39 -260 -69 -118 -30 -229 -60 -245 -66 -17 -6 -82 -24 -145 -39 -121 -30 -406 -115 -525 -157 -99 -35 -413 -141 -520 -174 -102 -33 -275 -95 -320 -115 -38 -17 -293 -115 -300 -115 -6 0 -181 -73 -240 -100 -22 -11 -76 -32 -120 -49 -126 -47 -318 -127 -371 -155 -46 -24 -172 -78 -349 -151 -44 -18 -150 -65 -235 -105 -85 -39 -180 -83 -210 -96 -184 -85 -663 -340 -741 -395 -15 -10 -46 -28 -70 -38 -84 -38 -298 -168 -569 -346 -52 -34 -109 -71 -126 -81 -18 -11 -112 -73 -210 -139 -99 -67 -187 -124 -197 -128 -16 -6 -70 -43 -190 -130 -29 -21 -69 -49 -90 -63 -53 -35 -354 -261 -398 -298 -19 -17 -57 -50 -85 -73 -27 -23 -98 -84 -158 -135 -60 -51 -136 -115 -170 -141 -33 -27 -90 -76 -126 -109 -36 -34 -82 -72 -104 -86 -62 -39 -796 -781 -946 -956 -14 -16 -131 -136 -260 -267 -154 -155 -250 -244 -279 -259 -60 -30 -132 -24 -276 24 -60 21 -130 41 -155 46 -25 4 -77 15 -116 23 -90 20 -277 43 -509 62 -99 8 -315 26 -480 40 -165 14 -415 32 -555 40 -236 13 -308 19 -525 45 -415 50 -502 52 -1692 47 -860 -3 -1138 -8 -1328 -20 -132 -9 -382 -24 -555 -32 -630 -30 -738 -41 -1175 -116 -99 -16 -205 -34 -235 -39 -30 -5 -77 -16 -105 -25 -27 -9 -95 -25 -150 -36 -55 -11 -122 -26 -148 -34 -38 -11 -60 -12 -99 -4 -86 19 -110 34 -202 131 -49 51 -135 140 -190 198 -56 58 -119 126 -139 152 -38 48 -117 134 -258 283 -41 44 -97 105 -124 135 -51 57 -234 240 -396 396 -52 49 -184 169 -293 265 -110 96 -209 182 -220 193 -12 10 -41 35 -66 55 -25 20 -47 39 -50 42 -13 15 -507 387 -636 479 -133 94 -361 258 -419 300 -45 33 -288 183 -375 232 -19 11 -42 26 -50 32 -20 17 -77 49 -177 102 -104 55 -125 66 -143 80 -15 12 -94 55 -184 101 -28 15 -112 61 -186 103 -74 43 -220 121 -325 175 -104 54 -207 109 -227 122 -21 13 -40 23 -43 23 -3 0 -114 53 -247 119 -134 65 -272 131 -308 147 -35 16 -112 53 -170 82 -58 29 -139 67 -180 84 -41 17 -79 34 -85 38 -5 4 -62 28 -125 53 -63 25 -167 69 -230 97 -63 29 -153 67 -200 86 -47 19 -94 39 -105 43 -100 43 -471 170 -594 203 -159 43 -209 58 -321 93 -299 93 -686 205 -900 259 -52 14 -174 44 -270 69 -236 60 -369 90 -595 132 -104 20 -233 45 -285 56 -249 53 -520 71 -657 45 -260 -49 -569 -239 -748 -459 -30 -38 -55 -72 -55 -77 0 -4 -15 -30 -34 -57 -128 -187 -194 -408 -241 -818 -14 -121 -41 -341 -60 -490 -55 -444 -66 -580 -90 -1155 -3 -69 -8 -165 -10 -215 -46 -874 -54 -1649 -26 -2445 5 -151 12 -378 16 -505 11 -409 24 -609 55 -815 11 -69 29 -208 40 -310 37 -332 83 -619 165 -1025 8 -38 26 -128 41 -200 39 -198 85 -387 101 -418 13 -25 37 -123 89 -362 21 -99 44 -179 129 -440 40 -126 97 -304 126 -395 28 -91 65 -193 80 -228 16 -34 29 -67 29 -73 0 -18 71 -222 102 -294 17 -38 52 -115 78 -170 47 -101 55 -119 106 -255 16 -41 57 -131 92 -199 35 -68 90 -180 122 -250 31 -70 77 -158 100 -196 24 -39 66 -119 95 -180 49 -105 134 -247 155 -260 5 -3 35 -47 65 -98 31 -51 78 -126 105 -167 27 -41 69 -109 94 -150 26 -41 69 -106 97 -145 79 -110 262 -390 315 -479 29 -50 56 -93 85 -137 9 -13 36 -58 60 -99 54 -93 124 -192 205 -290 69 -84 130 -173 164 -239 18 -36 21 -57 18 -115 -3 -61 -10 -84 -52 -166 -27 -52 -54 -102 -61 -110 -38 -46 -191 -407 -254 -595 -38 -115 -91 -257 -119 -315 -27 -58 -72 -154 -100 -215 -27 -60 -75 -165 -106 -233 -31 -67 -56 -125 -56 -129 0 -4 -24 -59 -54 -122 -30 -64 -69 -147 -86 -186 -18 -38 -48 -110 -66 -160 -17 -49 -55 -144 -84 -210 -28 -66 -72 -174 -97 -240 -24 -66 -56 -147 -70 -180 -21 -52 -98 -257 -217 -580 -18 -49 -63 -184 -100 -300 -37 -115 -90 -275 -118 -355 -103 -295 -150 -439 -189 -585 -22 -82 -49 -177 -60 -210 -22 -66 -78 -277 -114 -425 -13 -52 -33 -156 -45 -230 -12 -74 -30 -187 -41 -250 -11 -63 -26 -153 -34 -200 -41 -243 -57 -446 -62 -807 -8 -500 27 -1015 83 -1253 28 -117 89 -405 104 -490 17 -93 85 -337 138 -490 27 -80 68 -203 91 -275 24 -71 60 -166 81 -210 60 -125 95 -204 125 -280 33 -84 243 -496 313 -615 28 -47 80 -139 117 -205 90 -162 242 -388 354 -525 21 -25 54 -71 74 -102 21 -31 42 -60 48 -63 5 -4 21 -23 34 -43 71 -106 299 -364 511 -578 173 -175 224 -223 328 -309 27 -22 54 -45 60 -51 14 -13 381 -289 494 -372 115 -84 428 -292 570 -378 62 -38 159 -97 215 -132 56 -34 174 -99 262 -143 88 -44 171 -87 185 -94 127 -69 340 -163 520 -229 63 -24 133 -52 156 -64 22 -11 72 -31 110 -43 38 -12 95 -34 126 -50 31 -15 92 -39 135 -54 43 -15 100 -38 127 -52 27 -14 93 -41 145 -60 53 -19 119 -45 146 -58 153 -74 441 -173 840 -289 105 -31 348 -107 540 -171 193 -63 442 -142 555 -175 344 -102 529 -156 670 -195 74 -21 173 -48 220 -62 46 -13 156 -39 245 -58 167 -36 223 -51 415 -108 449 -134 603 -171 1010 -242 283 -50 632 -120 770 -155 194 -50 361 -79 458 -81 50 -1 95 1 100 5 4 4 7 895 6 1979 -1 2094 1 1978 -45 2407 -37 341 -135 541 -279 568 -162 31 -447 20 -605 -23 -292 -79 -536 -135 -641 -149 -314 -40 -438 -49 -599 -42 -269 11 -703 53 -850 81 -38 8 -144 23 -235 35 -275 34 -320 41 -460 75 -74 18 -155 36 -180 40 -25 4 -92 22 -150 41 -58 18 -134 40 -170 49 -73 19 -330 116 -430 163 -36 17 -141 65 -235 107 -246 110 -338 156 -540 267 -155 85 -251 143 -482 287 -39 24 -183 122 -421 286 -119 81 -377 303 -556 476 -117 112 -289 307 -371 418 -20 28 -96 122 -105 131 -73 73 -451 607 -510 720 -7 14 -48 81 -91 150 -96 154 -214 373 -320 590 -44 91 -95 194 -113 230 -18 36 -49 110 -69 165 -20 55 -66 181 -103 280 -89 243 -148 489 -238 990 -101 560 -121 749 -113 1070 5 246 34 498 78 683 119 501 554 1043 1090 1360 133 79 270 135 505 207 155 48 234 63 399 77 156 13 382 2 527 -27 147 -28 374 -94 532 -154 137 -51 178 -72 287 -146 70 -47 167 -120 215 -161 145 -123 340 -329 387 -408 23 -39 73 -118 112 -176 115 -172 257 -487 289 -645 29 -138 55 -355 66 -546 26 -458 45 -618 85 -724 12 -33 43 -114 67 -180 66 -175 114 -264 238 -435 47 -66 254 -280 361 -373 259 -227 429 -318 713 -381 607 -136 1265 -82 1708 140 113 57 296 182 434 295 197 163 452 483 554 694 100 208 149 403 195 780 42 346 46 521 39 2090 -4 963 -2 1739 6 2250 6 429 15 1401 20 2160 10 1562 13 1639 79 1937 58 265 159 515 309 769 149 252 495 640 777 872 359 295 903 566 1275 636 142 26 434 35 757 23 547 -22 689 -50 1052 -204 161 -68 311 -147 451 -236 98 -63 221 -170 424 -370 188 -187 232 -234 368 -399 89 -108 282 -438 360 -613 37 -85 81 -182 97 -215 40 -86 117 -371 135 -500 8 -60 18 -166 21 -235 4 -69 8 -1781 10 -3805 2 -2024 5 -3691 6 -3705 1 -14 5 -113 10 -220 10 -210 18 -291 50 -500 42 -279 111 -446 273 -663 158 -211 407 -469 568 -589 29 -22 67 -52 83 -68 74 -69 329 -231 445 -282 36 -16 84 -38 107 -48 63 -29 268 -87 350 -99 107 -16 424 -14 524 4 319 56 817 270 1124 484 231 160 487 450 638 722 145 262 172 324 242 549 54 173 57 243 65 1650 5 775 13 1323 19 1365 5 39 14 106 20 150 35 280 119 475 315 730 88 115 331 352 467 455 232 178 573 358 849 449 176 57 235 69 403 82 164 12 316 3 542 -31 158 -24 205 -36 365 -93 309 -110 500 -220 765 -442 205 -172 355 -365 482 -620 27 -55 55 -109 61 -120 25 -43 129 -323 140 -375 6 -30 23 -138 38 -240 31 -213 29 -81 22 -1765 -4 -743 -9 -1124 -17 -1220 -23 -253 -51 -447 -96 -655 -24 -113 -53 -252 -65 -310 -12 -58 -32 -139 -45 -180 -13 -41 -31 -111 -41 -155 -9 -44 -39 -145 -67 -225 -28 -80 -58 -172 -68 -205 -23 -80 -87 -240 -139 -349 -23 -49 -53 -117 -65 -150 -13 -34 -51 -117 -85 -186 -34 -69 -78 -159 -98 -200 -20 -41 -74 -138 -121 -215 -46 -77 -100 -169 -119 -205 -32 -61 -186 -295 -255 -387 -18 -23 -61 -82 -96 -130 -36 -48 -78 -103 -95 -121 -17 -19 -40 -44 -51 -55 -11 -12 -40 -49 -65 -82 -51 -68 -139 -176 -180 -220 -264 -284 -387 -408 -498 -500 -13 -11 -70 -62 -126 -114 -55 -51 -126 -110 -156 -131 -30 -21 -81 -64 -114 -95 -32 -31 -84 -73 -115 -93 -59 -37 -132 -91 -142 -105 -10 -14 -100 -73 -194 -128 -49 -29 -109 -66 -132 -83 -60 -44 -113 -75 -233 -138 -258 -136 -425 -212 -627 -284 -67 -24 -130 -48 -140 -54 -16 -10 -113 -40 -568 -176 -82 -25 -175 -53 -205 -63 -30 -10 -86 -22 -125 -25 -131 -12 -220 -28 -241 -41 -37 -24 -125 -43 -294 -65 -91 -11 -210 -29 -265 -40 -420 -81 -1333 -79 -1745 5 -36 7 -94 16 -130 20 -65 7 -215 35 -405 75 -74 16 -141 22 -255 23 l-155 2 -87 -43 c-71 -35 -93 -52 -123 -93 -47 -65 -52 -81 -80 -224 -53 -276 -54 -317 -46 -2525 1 -564 0 -1230 -4 -1481 -8 -488 -6 -521 38 -533 40 -11 161 -6 247 9 47 9 150 24 229 35 147 20 307 49 701 126 448 87 598 122 1030 239 96 26 247 67 335 90 306 81 440 117 489 132 28 8 104 28 170 44 67 17 186 50 266 73 80 24 233 69 340 101 107 31 294 89 415 130 121 41 261 86 310 100 176 51 758 246 896 300 77 30 142 55 145 55 3 0 20 7 37 15 18 8 68 28 112 44 85 32 360 145 435 179 113 51 457 195 575 240 72 27 173 69 225 92 52 23 131 58 175 77 180 79 572 285 890 467 55 32 107 63 115 70 8 7 40 27 70 46 59 35 257 180 360 263 35 29 94 75 131 102 36 28 122 96 190 153 68 57 133 111 144 119 106 85 440 402 538 511 93 105 286 335 307 366 26 39 54 78 81 110 21 26 126 173 179 252 25 37 147 215 196 284 26 36 50 66 55 68 5 2 9 9 9 15 0 7 14 27 30 46 17 18 30 31 30 27 0 -11 25 16 39 42 7 12 9 27 6 32 -4 6 1 7 11 3 14 -5 16 -2 11 16 -3 13 -3 20 0 17 10 -10 31 27 38 67 4 22 14 39 25 42 10 3 19 14 19 23 1 49 22 115 58 182 22 42 43 87 46 102 4 14 16 28 27 31 14 4 20 13 20 34 0 16 13 55 30 88 16 33 30 66 30 72 0 7 16 47 35 89 19 41 35 82 35 90 0 8 3 14 8 14 4 0 16 21 26 48 11 26 34 80 53 120 18 40 46 112 62 160 16 48 46 130 66 182 121 312 192 611 280 1165 47 297 65 599 67 1120 3 684 -34 1029 -154 1435 -91 310 -122 409 -173 555 -59 168 -67 194 -135 419 -24 77 -49 156 -58 175 -48 114 -131 362 -151 451 -7 30 -58 192 -113 360 -92 277 -168 486 -340 930 -33 85 -87 227 -120 315 -33 88 -80 207 -105 265 -24 58 -50 121 -57 140 -8 19 -21 53 -30 75 -9 22 -29 76 -45 120 -15 44 -58 157 -95 250 -37 94 -78 208 -93 255 -14 47 -39 111 -54 143 -47 92 -97 222 -179 467 -27 80 -78 206 -113 280 -69 144 -107 252 -107 304 0 40 22 121 45 166 9 19 43 68 74 109 85 112 142 194 337 483 33 49 66 90 76 93 9 3 21 19 27 35 5 17 14 30 19 30 12 0 52 74 52 95 0 8 5 14 12 12 6 -1 18 16 27 38 8 22 23 49 33 59 10 11 18 23 18 27 0 4 20 28 45 53 45 45 144 169 147 183 3 11 46 74 100 146 26 34 48 66 48 71 0 4 10 21 23 36 56 69 188 295 264 450 36 74 101 209 145 300 101 208 133 278 178 395 13 33 30 70 38 82 7 12 15 50 16 84 2 33 7 64 13 67 5 4 18 30 28 57 10 28 24 59 31 70 7 11 22 49 34 85 12 36 25 70 29 75 5 6 16 35 25 65 9 30 23 69 31 85 7 17 19 53 26 80 11 42 14 46 19 26 5 -22 7 -21 28 20 12 24 43 107 68 184 37 109 47 155 48 210 1 42 8 82 17 100 9 17 24 60 33 98 10 37 22 70 27 73 5 3 9 16 9 30 0 16 4 23 11 18 6 -3 10 1 9 12 -1 11 -2 26 -1 34 1 13 2 13 11 0 6 -10 7 2 3 38 -4 36 -2 52 6 52 6 0 11 -4 11 -10 0 -20 15 -10 27 18 10 24 46 142 74 247 6 22 18 60 25 85 20 66 52 184 75 275 10 44 28 114 38 155 11 41 29 122 41 180 12 58 35 168 51 245 45 216 100 510 119 645 6 36 15 88 20 115 6 28 17 100 25 160 8 61 19 144 25 185 23 157 29 225 39 461 6 134 16 271 21 304 11 71 28 505 40 1065 5 223 12 454 16 514 6 102 -1 433 -27 1261 -7 193 -15 420 -20 505 -4 85 -14 317 -23 515 -16 368 -29 574 -45 725 -5 47 -14 128 -20 180 -33 319 -99 643 -181 900 -10 30 -28 93 -41 140 -25 91 -87 214 -149 295 -84 109 -170 176 -465 363 -163 103 -206 114 -445 118 -107 2 -204 0 -215 -5z"
       id="path1" />
    <path
       d="M32105 21980 c3 -5 8 -10 11 -10 2 0 4 5 4 10 0 6 -5 10 -11 10 -5 0 -7 -4 -4 -10z"
       id="path2" />
    <path
       d="M32078 21863 c7 -3 16 -2 19 1 4 3 -2 6 -13 5 -11 0 -14 -3 -6 -6z"
       id="path3" />
    <path
       d="M17150 12914 c-147 -7 -307 -25 -480 -55 -290 -50 -344 -69 -475 -166 -145 -107 -217 -209 -373 -519 -214 -428 -261 -570 -270 -806 -4 -114 -2 -135 21 -216 24 -82 87 -224 146 -326 33 -58 228 -366 254 -401 92 -127 264 -333 416 -500 74 -81 100 -133 101 -193 0 -53 -9 -71 -69 -142 -26 -30 -56 -66 -67 -79 -39 -48 -196 -160 -286 -204 -202 -99 -317 -121 -648 -121 -222 0 -254 2 -334 22 -49 12 -103 29 -120 37 -17 7 -66 29 -109 49 -211 95 -381 231 -553 441 -52 63 -116 162 -184 285 -197 352 -295 430 -545 430 -188 0 -298 -43 -415 -160 -185 -184 -201 -395 -56 -714 66 -145 229 -397 340 -527 221 -256 330 -359 532 -501 383 -270 663 -380 1109 -439 151 -19 197 -21 415 -16 135 4 297 14 360 22 504 69 929 283 1338 675 150 143 188 170 238 170 69 0 113 -28 247 -152 398 -368 695 -535 1147 -645 201 -48 320 -63 576 -70 289 -8 413 7 713 83 416 106 738 282 1052 575 108 101 264 270 342 371 55 72 219 307 246 352 62 108 117 272 142 424 30 183 -53 367 -196 433 -95 45 -206 62 -355 56 -90 -3 -141 -11 -183 -25 -97 -35 -176 -83 -237 -144 -55 -56 -217 -275 -313 -425 -85 -132 -234 -290 -366 -386 -71 -53 -236 -135 -333 -167 -115 -38 -185 -45 -433 -45 -194 0 -256 3 -324 18 -261 56 -486 175 -627 330 -160 177 -155 233 37 432 148 153 282 311 368 434 164 234 318 522 367 686 63 207 22 553 -102 870 -150 379 -362 663 -583 778 -36 19 -100 47 -141 61 -84 30 -359 80 -525 96 -113 11 -672 20 -805 14z"
       id="path4"
       style="fill:#000000;fill-opacity:1" />
    <ellipse
       style="fill:#000000;fill-opacity:1;fill-rule:evenodd;stroke:#000000;stroke-width:1901"
       id="path5"
       cx="12038.17"
       cy="-13512.682"
       transform="scale(1,-1)"
       rx="638.22107"
       ry="660.2287" />
    <ellipse
       style="fill:#000000;fill-opacity:1;fill-rule:evenodd;stroke:#000000;stroke-width:1901"
       id="path5-9"
       cx="22791.748"
       cy="-13449.087"
       transform="scale(1,-1)"
       rx="638.22198"
       ry="660.22961" />
  </g>
</svg>
